<?xml version="1.0" encoding="utf-8"?>
<!-- Generator: Adobe Illustrator 24.0.2, SVG Export Plug-In . SVG Version: 6.00 Build 0)  -->
<svg version="1.1" xmlns="http://www.w3.org/2000/svg" xmlns:xlink="http://www.w3.org/1999/xlink" x="0px" y="0px"
	 viewBox="0 0 1920 1080" style="enable-background:new 0 0 1920 1080;" xml:space="preserve">
<style type="text/css">
	.st0{display:none;}
	.st1{display:inline;}
	.st2{fill:url(#SVGID_1_);}
	.st3{fill:url(#SVGID_2_);}
	.st4{display:inline;fill:#F06966;}
	.st5{fill:#F06966;}
	.st6{fill:none;stroke:#F06966;stroke-width:2;stroke-miterlimit:10;}
	.st7{fill:none;stroke:#F06966;stroke-width:3;stroke-miterlimit:10;}
</style>
<g id="Lager_1" class="st0">
</g>
<g id="bg" class="st0">
	<g class="st1">
		<linearGradient id="SVGID_1_" gradientUnits="userSpaceOnUse" x1="1324.3698" y1="-69.2108" x2="446.4343" y2="1398.6602">
			<stop  offset="0" style="stop-color:#FAD6A6"/>
			<stop  offset="0.2149" style="stop-color:#F7B894"/>
			<stop  offset="0.6471" style="stop-color:#F27F73"/>
			<stop  offset="0.8557" style="stop-color:#F06966"/>
		</linearGradient>
		<rect class="st2" width="1920" height="1080"/>
	</g>
</g>
<g id="Lager_4">
	<linearGradient id="SVGID_2_" gradientUnits="userSpaceOnUse" x1="960" y1="1113.8328" x2="960" y2="82.3902">
		<stop  offset="0" style="stop-color:#FAD6A6"/>
		<stop  offset="0.1261" style="stop-color:#F9D0A3"/>
		<stop  offset="0.2875" style="stop-color:#F8C199"/>
		<stop  offset="0.4681" style="stop-color:#F6A68A"/>
		<stop  offset="0.6613" style="stop-color:#F28275"/>
		<stop  offset="0.7749" style="stop-color:#F06966"/>
	</linearGradient>
	<path class="st3" d="M0,402.5c0,0,110-138.5,447-122.5c250.84,11.91,546,375,798,374s298-200,491-200c124,0,184,38,184,38v588H0
		V402.5z"/>
</g>
<g id="gbg" class="st0">
	<path id="tower_1_" class="st4" d="M1623.55,280.76v32.65c0,0.42-0.34,0.76-0.76,0.76h-0.01c-0.42,0-0.76,0.34-0.76,0.75
		l-0.37,37.98c0,0.42-0.34,0.75-0.76,0.75h-0.01c-0.42,0-0.76,0.34-0.76,0.76l-0.14,24.32c0,0.41-0.33,0.74-0.74,0.75l-13.1,0.35
		c-0.14,0-0.28,0.05-0.4,0.12l-13.27,8.71c-0.27,0.18-0.4,0.5-0.32,0.81l11.95,50.8c0.05,0.21,0.18,0.38,0.36,0.49l4.85,2.77
		c0.11,0.07,0.24,0.1,0.38,0.1h5.11c0.42,0,0.76,0.34,0.76,0.76v181.5c0,0.42-0.34,0.76-0.76,0.76h-2.28
		c-0.42,0-0.76,0.34-0.76,0.76v2.28c0,0.42-0.34,0.76-0.76,0.76l0,0c-0.42,0-0.76,0.34-0.76,0.76v5.32c0,0.42-0.34,0.76-0.76,0.76
		h-6.08c-0.42,0-0.76,0.34-0.76,0.76v5.11c0,0.13,0.03,0.26,0.1,0.38l2.72,4.76c0.14,0.24,0.39,0.38,0.66,0.38h8.67
		c0.42,0,0.76,0.34,0.76,0.76v265.79c0,0.42,0.34,0.76,0.76,0.76h15.95c0.42,0,0.76-0.34,0.76-0.75l1.89-266.18
		c0-0.42,0.34-0.75,0.76-0.75h8.32c0.26,0,0.5-0.13,0.64-0.35l2.32-3.64c0.08-0.12,0.12-0.26,0.12-0.41v-5.47
		c0-0.42-0.34-0.76-0.76-0.76h-6.83c-0.42,0-0.76-0.34-0.76-0.76v-5.32c0-0.42-0.34-0.76-0.76-0.76l0,0c-0.42,0-0.76-0.34-0.76-0.76
		v-2.28c0-0.42-0.34-0.76-0.76-0.76h-2.27c-0.42,0-0.76-0.34-0.76-0.77l1.51-182.26c0-0.42,0.34-0.75,0.76-0.75h5.17
		c0.1,0,0.2-0.02,0.3-0.06l4.81-2.06c0.23-0.1,0.39-0.3,0.44-0.54l11.19-51.5c0.07-0.31-0.07-0.63-0.34-0.8l-13.79-8.71
		c-0.12-0.08-0.26-0.12-0.41-0.12h-11.93c-0.42,0-0.76-0.34-0.76-0.76v-24.3c0-0.42-0.34-0.76-0.76-0.76l0,0
		c-0.42,0-0.76-0.34-0.76-0.76v-37.97c0-0.42-0.34-0.76-0.76-0.76l0,0c-0.42,0-0.76-0.34-0.76-0.76v-32.65
		c0-0.42-0.34-0.76-0.76-0.76h-2.28C1623.89,280,1623.55,280.34,1623.55,280.76z"/>
	<g id="Wheel" class="st1">
		<g id="legs">
			<polygon class="st5" points="1456.38,744.75 1364.02,911 1400.2,911 1456,751.29 			"/>
			<polygon class="st5" points="1456.66,744.75 1549.02,911 1512.84,911 1457.04,751.29 			"/>
		</g>
		<g id="lines">
			<line class="st6" x1="1456.38" y1="617.75" x2="1456.38" y2="872.52"/>
			<line class="st6" x1="1410.2" y1="626.22" x2="1502.57" y2="863.28"/>
			<line class="st6" x1="1506.41" y1="627.76" x2="1405.59" y2="861.74"/>
			<line class="st6" x1="1328.62" y1="745.52" x2="1583.38" y2="745.52"/>
			<line class="st6" x1="1576.24" y1="702.99" x2="1335.76" y2="787.28"/>
			<line class="st6" x1="1338.62" y1="696.26" x2="1573.38" y2="794.01"/>
			<line class="st6" x1="1364.02" y1="657.01" x2="1548.75" y2="832.49"/>
			<line class="st6" x1="1550.29" y1="659.31" x2="1361.71" y2="830.95"/>
		</g>
		<g id="circles">
			<circle class="st7" cx="1456" cy="745.13" r="127.38"/>
			<circle class="st7" cx="1456" cy="745.13" r="98.65"/>
			<circle class="st7" cx="1456" cy="745.13" r="70.87"/>
			<circle class="st7" cx="1456" cy="745.13" r="42.14"/>
			<circle class="st5" cx="1456" cy="745.13" r="14.62"/>
		</g>
		<g id="cabbins">
			<path class="st5" d="M1444.98,630.07h1.27c2.2,0,3.98-1.78,3.98-3.98v-4.35c0-2.2-1.78-3.98-3.98-3.98h-1.27
				c-2.2,0-3.98,1.78-3.98,3.98v4.35C1440.99,628.28,1442.77,630.07,1444.98,630.07z"/>
			<path class="st5" d="M1422.65,633.92h1.27c2.2,0,3.98-1.78,3.98-3.98v-4.35c0-2.2-1.78-3.98-3.98-3.98h-1.27
				c-2.2,0-3.98,1.78-3.98,3.98v4.35C1418.67,632.13,1420.45,633.92,1422.65,633.92z"/>
			<path class="st5" d="M1398.02,643.15h1.27c2.2,0,3.98-1.78,3.98-3.98v-4.35c0-2.2-1.78-3.98-3.98-3.98h-1.27
				c-2.2,0-3.98,1.78-3.98,3.98v4.35C1394.04,641.37,1395.82,643.15,1398.02,643.15z"/>
			<path class="st5" d="M1376.47,657.01h1.27c2.2,0,3.98-1.78,3.98-3.98v-4.35c0-2.2-1.78-3.98-3.98-3.98h-1.27
				c-2.2,0-3.98,1.78-3.98,3.98v4.35C1372.49,655.22,1374.27,657.01,1376.47,657.01z"/>
			<path class="st5" d="M1357.23,676.25h1.27c2.2,0,3.98-1.78,3.98-3.98v-4.35c0-2.2-1.78-3.98-3.98-3.98h-1.27
				c-2.2,0-3.98,1.78-3.98,3.98v4.35C1353.25,674.46,1355.03,676.25,1357.23,676.25z"/>
			<path class="st5" d="M1344.15,693.95h1.27c2.2,0,3.98-1.78,3.98-3.98v-4.35c0-2.2-1.78-3.98-3.98-3.98h-1.27
				c-2.2,0-3.98,1.78-3.98,3.98v4.35C1340.16,692.17,1341.95,693.95,1344.15,693.95z"/>
			<path class="st5" d="M1334.14,716.27h1.27c2.2,0,3.98-1.78,3.98-3.98v-4.35c0-2.2-1.78-3.98-3.98-3.98h-1.27
				c-2.2,0-3.98,1.78-3.98,3.98v4.35C1330.16,714.49,1331.94,716.27,1334.14,716.27z"/>
			<path class="st5" d="M1328.75,737.82h1.27c2.2,0,3.98-1.78,3.98-3.98v-4.35c0-2.2-1.78-3.98-3.98-3.98h-1.27
				c-2.2,0-3.98,1.78-3.98,3.98v4.35C1324.77,736.04,1326.55,737.82,1328.75,737.82z"/>
			<path class="st5" d="M1327.98,765.53h1.27c2.2,0,3.98-1.78,3.98-3.98v-4.35c0-2.2-1.78-3.98-3.98-3.98h-1.27
				c-2.2,0-3.98,1.78-3.98,3.98v4.35C1324,763.75,1325.78,765.53,1327.98,765.53z"/>
			<path class="st5" d="M1331.83,788.62h1.27c2.2,0,3.98-1.78,3.98-3.98v-4.35c0-2.2-1.78-3.98-3.98-3.98h-1.27
				c-2.2,0-3.98,1.78-3.98,3.98v4.35C1327.85,786.84,1329.63,788.62,1331.83,788.62z"/>
			<path class="st5" d="M1339.53,809.4h1.27c2.2,0,3.98-1.78,3.98-3.98v-4.35c0-2.2-1.78-3.98-3.98-3.98h-1.27
				c-2.2,0-3.98,1.78-3.98,3.98v4.35C1335.55,807.62,1337.33,809.4,1339.53,809.4z"/>
			<path class="st5" d="M1351.07,830.95h1.27c2.2,0,3.98-1.78,3.98-3.98v-4.35c0-2.2-1.78-3.98-3.98-3.98h-1.27
				c-2.2,0-3.98,1.78-3.98,3.98v4.35C1347.09,829.17,1348.87,830.95,1351.07,830.95z"/>
			<path class="st5" d="M1369.55,850.2h1.27c2.2,0,3.98-1.78,3.98-3.98v-4.35c0-2.2-1.78-3.98-3.98-3.98h-1.27
				c-2.2,0-3.98,1.78-3.98,3.98v4.35C1365.56,848.41,1367.35,850.2,1369.55,850.2z"/>
			<path class="st5" d="M1388.79,865.59h1.27c2.2,0,3.98-1.78,3.98-3.98v-4.35c0-2.2-1.78-3.98-3.98-3.98h-1.27
				c-2.2,0-3.98,1.78-3.98,3.98v4.35C1384.8,863.81,1386.59,865.59,1388.79,865.59z"/>
			<path class="st5" d="M1440.36,883.29h1.27c2.2,0,3.98-1.78,3.98-3.98v-4.35c0-2.2-1.78-3.98-3.98-3.98h-1.27
				c-2.2,0-3.98,1.78-3.98,3.98v4.35C1436.37,881.51,1438.16,883.29,1440.36,883.29z"/>
			<path class="st5" d="M1415.73,878.67h1.27c2.2,0,3.98-1.78,3.98-3.98v-4.35c0-2.2-1.78-3.98-3.98-3.98h-1.27
				c-2.2,0-3.98,1.78-3.98,3.98v4.35C1411.74,876.89,1413.53,878.67,1415.73,878.67z"/>
			<path class="st5" d="M1469.6,883.29h1.27c2.2,0,3.98-1.78,3.98-3.98v-4.35c0-2.2-1.78-3.98-3.98-3.98h-1.27
				c-2.2,0-3.98,1.78-3.98,3.98v4.35C1465.62,881.51,1467.4,883.29,1469.6,883.29z"/>
			<path class="st5" d="M1491.93,878.67h1.27c2.2,0,3.98-1.78,3.98-3.98v-4.35c0-2.2-1.78-3.98-3.98-3.98h-1.27
				c-2.2,0-3.98,1.78-3.98,3.98v4.35C1487.94,876.89,1489.73,878.67,1491.93,878.67z"/>
			<path class="st5" d="M1540.42,851.73h1.27c2.2,0,3.98-1.78,3.98-3.98v-4.35c0-2.2-1.78-3.98-3.98-3.98h-1.27
				c-2.2,0-3.98,1.78-3.98,3.98v4.35C1536.43,849.95,1538.22,851.73,1540.42,851.73z"/>
			<path class="st5" d="M1520.4,866.36h1.27c2.2,0,3.98-1.78,3.98-3.98v-4.35c0-2.2-1.78-3.98-3.98-3.98h-1.27
				c-2.2,0-3.98,1.78-3.98,3.98v4.35C1516.42,864.57,1518.2,866.36,1520.4,866.36z"/>
			<path class="st5" d="M1556.58,834.03h1.27c2.2,0,3.98-1.78,3.98-3.98v-4.35c0-2.2-1.78-3.98-3.98-3.98h-1.27
				c-2.2,0-3.98,1.78-3.98,3.98v4.35C1552.59,832.25,1554.38,834.03,1556.58,834.03z"/>
			<path class="st5" d="M1568.89,814.79h1.27c2.2,0,3.98-1.78,3.98-3.98v-4.35c0-2.2-1.78-3.98-3.98-3.98h-1.27
				c-2.2,0-3.98,1.78-3.98,3.98v4.35C1564.91,813.01,1566.69,814.79,1568.89,814.79z"/>
			<path class="st5" d="M1578.13,790.93h1.27c2.2,0,3.98-1.78,3.98-3.98v-4.35c0-2.2-1.78-3.98-3.98-3.98h-1.27
				c-2.2,0-3.98,1.78-3.98,3.98v4.35C1574.15,789.15,1575.93,790.93,1578.13,790.93z"/>
			<path class="st5" d="M1582.75,767.07h1.27c2.2,0,3.98-1.78,3.98-3.98v-4.35c0-2.2-1.78-3.98-3.98-3.98h-1.27
				c-2.2,0-3.98,1.78-3.98,3.98v4.35C1578.76,765.29,1580.55,767.07,1582.75,767.07z"/>
			<path class="st5" d="M1581.98,742.44h1.27c2.2,0,3.98-1.78,3.98-3.98v-4.35c0-2.2-1.78-3.98-3.98-3.98h-1.27
				c-2.2,0-3.98,1.78-3.98,3.98v4.35C1577.99,740.66,1579.78,742.44,1581.98,742.44z"/>
			<path class="st5" d="M1578.13,720.89h1.27c2.2,0,3.98-1.78,3.98-3.98v-4.35c0-2.2-1.78-3.98-3.98-3.98h-1.27
				c-2.2,0-3.98,1.78-3.98,3.98v4.35C1574.15,719.11,1575.93,720.89,1578.13,720.89z"/>
			<path class="st5" d="M1569.66,699.34h1.27c2.2,0,3.98-1.78,3.98-3.98v-4.35c0-2.2-1.78-3.98-3.98-3.98h-1.27
				c-2.2,0-3.98,1.78-3.98,3.98v4.35C1565.68,697.55,1567.46,699.34,1569.66,699.34z"/>
			<path class="st5" d="M1555.81,678.56h1.27c2.2,0,3.98-1.78,3.98-3.98v-4.35c0-2.2-1.78-3.98-3.98-3.98h-1.27
				c-2.2,0-3.98,1.78-3.98,3.98v4.35C1551.83,676.77,1553.61,678.56,1555.81,678.56z"/>
			<path class="st5" d="M1537.34,659.31h1.27c2.2,0,3.98-1.78,3.98-3.98v-4.35c0-2.2-1.78-3.98-3.98-3.98h-1.27
				c-2.2,0-3.98,1.78-3.98,3.98v4.35C1533.35,657.53,1535.14,659.31,1537.34,659.31z"/>
			<path class="st5" d="M1515.79,644.69h1.27c2.2,0,3.98-1.78,3.98-3.98v-4.35c0-2.2-1.78-3.98-3.98-3.98h-1.27
				c-2.2,0-3.98,1.78-3.98,3.98v4.35C1511.8,642.91,1513.59,644.69,1515.79,644.69z"/>
			<path class="st5" d="M1494.23,635.45h1.27c2.2,0,3.98-1.78,3.98-3.98v-4.35c0-2.2-1.78-3.98-3.98-3.98h-1.27
				c-2.2,0-3.98,1.78-3.98,3.98v4.35C1490.25,633.67,1492.03,635.45,1494.23,635.45z"/>
			<path class="st5" d="M1471.91,630.07h1.27c2.2,0,3.98-1.78,3.98-3.98v-4.35c0-2.2-1.78-3.98-3.98-3.98h-1.27
				c-2.2,0-3.98,1.78-3.98,3.98v4.35C1467.93,628.28,1469.71,630.07,1471.91,630.07z"/>
		</g>
	</g>
	<path class="st4" d="M1340.02,553.86c0,0-6.92-1.89-9.44-4.4c-2.52-2.52-6.29-8.18-5.03-11.95c0,0,0-0.63,1.26-1.26
		s1.26,0.63,1.89,0c0.63-0.63,0-2.52,0.63-3.15c0.63-0.63,1.89,0,2.52-0.63c0.63-0.63,1.26-2.52,2.52-3.15
		c1.26-0.63,5.66,0,6.29-0.63c0.63-0.63,1.89-1.89,3.77-2.52c1.89-0.63,16.36-2.52,20.13-1.89c3.77,0.63,3.15,1.26,4.4,1.26
		s3.77-0.63,5.66-0.63c1.89,0,2.52,0.63,3.15,0.63s4.4-3.77,5.66-3.77s2.52,1.89,3.15,1.26c0.63-0.63,1.89-2.52,3.77-2.52
		s3.77,2.52,3.15,6.29c-0.63,3.77-9.44,18.24-10.07,18.87c0,0,1.26,0,1.26,0.63s-8.18,10.69-9.44,11.32s-7.55,1.89-13.21,1.89
		s-13.21,0.63-14.47,2.52c-1.26,1.89-3.15,7.55-3.15,10.07c0,2.52,0,11.95-0.63,15.73s-5.03,22.65-5.66,23.91s-1.89,3.77-12.58,6.92
		c-10.69,3.15-24.53,5.66-31.45,7.55c-6.92,1.89-24.53,3.15-24.53,3.15s-2.52,10.69-2.52,12.58c0,1.89-1.89,13.21-2.52,15.1
		c-0.63,1.89-1.89,9.44-2.52,11.32c-0.63,1.89,2.52,12.58,3.15,15.73c0.63,3.15,0,7.55,0,10.07c0,2.52,1.89,18.87,1.89,22.02
		c0,3.15,1.26,11.32,0,18.24s-6.29,29.57-8.81,35.86c-2.52,6.29-9.44,19.5-10.07,22.65c-0.63,3.15,0,32.08-1.26,37.74
		s-7.55,13.21-7.55,14.47c0,1.26-13.84,35.86-13.84,39.63c0,3.77,2.52,10.69,3.77,11.32s3.15,4.4,3.15,5.66
		c0,1.26-4.4,3.15-11.95,3.15s-14.47,0.63-11.95-3.15c2.52-3.77,3.15-8.18,3.15-10.07s-1.26-5.03-0.63-6.29
		c0.63-1.26,4.09-7.23,4.09-8.49c0-1.26,3.77-32.08,4.4-35.23c0.63-3.15,0.63-13.21,1.89-15.73c1.26-2.52,4.4-10.07,3.77-13.21
		c-0.63-3.15-1.89-13.84-1.26-20.13c0.63-6.29,2.52-19.5,3.15-23.28c0.63-3.77,1.89-29.57,1.26-31.45s-5.66,0-6.29,1.26
		c-0.63,1.26-7.55,15.73-11.95,19.5c-4.4,3.77-18.87,25.16-20.13,27.68c-1.26,2.52-5.03,11.32-6.29,13.84
		c-1.26,2.52-5.66,7.55-5.66,8.18c0,0.63,1.26,19.5,0.63,23.91c-0.63,4.4-3.77,10.69-4.4,13.21c-0.63,2.52-5.66,27.05-6.29,30.2
		c-0.63,3.15-1.89,7.55-1.26,10.07c0.63,2.52,2.52,6.29,1.89,8.81c-0.63,2.52-5.66,3.15-8.81,5.03c-3.15,1.89-11.95,6.92-15.73,7.55
		c-3.77,0.63-12.58,1.89-14.47,0c-1.89-1.89,0.63-6.29,3.15-7.55c2.52-1.26,8.81-4.4,10.69-6.92c1.89-2.52,10.07-10.07,10.07-12.58
		c0-2.52-0.63-40.89-1.26-44.04c-0.63-3.15,0.63-20.13,3.15-28.94c2.52-8.81,3.77-18.24,5.66-22.65c1.89-4.4,3.15-16.99,5.03-22.02
		c1.89-5.03,9.44-23.28,15.1-32.08c5.66-8.81,10.69-16.36,11.32-18.87c0.63-2.52,0.63-7.55,1.26-10.07c0.63-2.52,4.4-5.66,4.4-8.81
		s-0.63-10.07-0.63-11.95s-1.89-8.18-2.52-10.69c-0.63-2.52-6.29-10.07-7.55-10.07s-1.89,8.18-3.15,11.32
		c-1.26,3.15-5.66,10.69-8.18,12.58c0,0,1.26,10.07,1.26,14.47s-1.26,11.95,0,12.58s7.55,1.89,10.69,0.63c0,0-1.26,6.92-11.32,7.55
		c0,0,4.4,6.92,1.89,12.58c0,0-6.92-9.44-12.58-13.84c-5.66-4.4-6.92-7.55-9.44-16.99c0,0-1.26,0-2.52-0.63
		c-1.26-0.63-7.55-15.1-7.55-15.1s-0.63,1.89-1.89,1.26s-1.89-1.26-2.52-0.63c-0.63,0.63-1.89,0.63-2.52,0
		c-0.63-0.63-0.63-2.52-1.26-1.89c-0.63,0.63-1.89,0.63-2.52,0c-0.63-0.63-1.26-3.77-0.63-5.66c0.63-1.89,1.89-3.15,1.89-4.4
		c0-1.26-1.89,0.63-2.52,0c-0.63-0.63-2.52-1.26-0.63-3.77c1.89-2.52,3.77-6.29,3.77-6.29s-1.89-3.15-2.52-5.03
		c-0.63-1.89-1.89-8.18-2.52-9.44c-0.63-1.26,0-3.15-0.63-4.4c-0.63-1.26-1.89-1.26-1.89-3.15s3.15-5.03,3.15-6.29
		s-6.29-14.47-8.18-20.76s-3.15-10.69-4.4-13.21c-1.26-2.52-4.4-6.29-2.52-7.55c1.89-1.26,4.4-0.63,7.55,2.52
		c3.15,3.15,3.15,3.77,4.4,3.77s1.89-1.89,3.15-1.26c1.26,0.63,7.55,9.44,8.81,11.95c1.26,2.52,2.52,0,0.63-2.52
		c-1.89-2.52-2.52-3.77,0-4.4c2.52-0.63,3.77-0.63,5.66,1.89c1.89,2.52,8.18,10.07,12.58,22.65c0,0,7.55,1.26,8.81,0
		c1.26-1.26-0.63-5.66,5.03-9.44s30.2-15.1,32.71-17.61c2.52-2.52,3.77-8.18,3.77-9.44s-1.11-3.55-2.37-2.92s-2,1-2,2
		c0,0.89,2.37,1.26,3,0c0,0,0.52,2.37-2,3s-5-1.48-5-4s4.11-5.74,6-7s0.26-3.37-1-4s-1.26,2.37,0,3c0,0-4-2-4-4
		c0-3.16,2.34-3.07,4.85-2.44c0,0,3.15-3.56,1.15-4.56c-3.56-1.78-2,2-1,2c0,0-3.63,0.15-3-3s4-3,5.37-2.62
		c3.83,1.07,2.52-2.52,2.52-2.52s-1.89-1.89-0.63-3.15s5.66-5.66,6.92-6.29s-1.89-1.89,1.89-5.03c3.77-3.15,7.55-5.03,8.81-5.03
		s0-2.52,2.52-3.15c2.52-0.63,2.52,0,3.15-1.26c0.63-1.26-0.63-1.89,0.63-2.52s3.15-0.63,4.4,0.63s2.52,1.89,3.77,1.89
		s0.63,1.89,1.26,1.89c0.63,0,5.03,0,4.4,1.89s3.15,0.63,4.4,3.15c1.26,2.52,1.89,3.77,0.63,4.4c-1.26,0.63,3.77,1.26,4.4,3.77
		c0.63,2.52,1.26,5.66,0,6.92s-0.63,0.63-0.63,1.26s-1.81,6.76-2.52,8.18c-1.2,2.39-4.29,2.33-4.29,3.58s0.45,2.11,0,3
		c-1,2-2,2.85-2,2.85s0,1.89,0,2.52s-1.26,1.26-2.52,0.63s-2.52,1.89-2.52,3.15c0,1.26-1.89,0-1.89,0.63s0.63,0.63,0.63,0.63
		s0.63,0.63-0.63,1.26s-1.45,1.71-2.08,2.34s-0.11,1.37-2,2s-0.95,5.1,2.82,5.72c3.77,0.63,15.1,0.63,17.61,0
		c2.52-0.63,12.58-1.89,19.5-0.63c6.92,1.26,14.47,0.63,16.99-0.63c2.52-1.26,10.69-1.26,15.1-0.63c4.4,0.63,8.18,1.89,8.81,0.63
		c0.63-1.26,2.52-6.29,4.4-10.69c1.89-4.4,6.29-10.69,7.55-13.84C1334.04,571.79,1336.56,556.06,1340.02,553.86z"/>
	<path id="crane1" class="st4" d="M283.5,906.5v3h41v-2l-13-5l4-76h91l3,76l-16,4v3h44v-2l-17-5l-1-90l-26-59h7v-3l5-7h19v-18h-12
		l10-23l58-255l32,113l-9,7l10,15h1v41l4,5v6h-3v-3h-3v7h15v-7h-3v3h-3v-6l4-5v-41l24,21l2-2l-2-6l-5-1l-23-23v-5h3v-7l-5-1l-1-138
		l-36-20l-9-11v-5l-7-10v-6h-5v6l3,4l1,18l-111,231l-5-3l-3,4l6,4l-4,9l-44,37c-3-3-9-3-13,0s-6,8-2,14s12,5,16,3s5-8,5-8
		s17-12,19-13s4-1,6,0s2,4,2,4v6c0,0-6,0-8,0s-4,1-4,4s2,5,2,5h11v16h-48L290,754h35l-27,57v91L283.5,906.5z M344.31,753.5l12,15
		h-26l6-15H344.31z M355.5,647.5l39,40h-24v-9h-17v-3h-5v-5h-8v-4L355.5,647.5z M516.5,582.5h7v35h-7V582.5z M499.5,493.5l16-4l1,66
		L499.5,493.5z M484.5,436.5l31-8v56l-17,4L484.5,436.5z M474.5,402.5h3l36,20l-30,8L474.5,402.5z M396.5,683.5l-41-43l114-235l7,27
		l-14,48l-10,1l6,11l-54,191H396.5z M392.5,725.5v-20h-25v-5h8v-9h25v34H392.5z M364.5,774.5h28l12,35h-40V774.5z M364.5,768.5
		l12-15h8l6,15H364.5z M316.5,809.5l12-35h28v35H316.5z"/>
	<path id="crane2" class="st4" d="M858.57,707.7v10.9h-1.56v3.12l1.56,1.56v3.12h-1.56v-2.34h-1.56v3.89h9.35v-3.89h-1.56v2.34
		h-1.56v-3.12l1.56-1.56v-3.12h-1.56v-10.9l50.62-46.73h2.34l80.99,98.12h-9.35V770h17.13l7.79,4.67v71.65l-7.79,7.79l-0.78,31.15
		l-16.35,13.24h66.97l-17.13-12.46v-34.27l-7.01-4.67v-63.08h24.14v-18.69h-24.14l19.08-62.69H1070v-12.46l-25.31-0.39v3.12h-10.9
		l-100.46-59.96v-3.12H923.2v3.12l-17.91,5.45l-44.39,65.42h-4.67l-3.89-3.12l-2.34,2.34l5.45,4.67H858.57z M1015.88,872.02
		l0.78-3.89h2.34l2.34,3.89v12.46h-5.45V872.02z M994.07,739.63l3.12-6.23l30.37-14.8l-14.02,38.94h-5.45L994.07,739.63z
		 M987.06,731.07l35.82-32.71h11.68l-1.56,7.79h-17.13v10.9h8.57l-34.27,17.13L987.06,731.07z M927.1,657.86v-2.34l-7.01-3.12
		l11.68-17.13l93.45,57.63l-39.72,35.82l-62.3-68.53v-2.34H927.1z M908.41,639.95l17.13-5.45h3.12l-12.46,17.13L908.41,639.95z
		 M891.27,675.77l-5.45-4.67l18.69-28.04l6.23,14.02L891.27,675.77z M867.13,698.36l17.13-24.14l5.45,3.89l-21.81,21.03
		L867.13,698.36z M859.35,707.7h1.56v10.12h-1.56V707.7z"/>
	<g id="boat" class="st1">
		<path id="rep_1_" class="st6" d="M838.89,844.47c-0.12-1.23-0.14-3.04-0.1-5.29c0.08-3.76,0.32-8.74,0.49-14.17
			c0.05-1.7,0.1-3.45,0.13-5.21c0.09-5.15,0.05-10.49-0.29-15.43l-0.01-0.1c-0.1-1.47-0.23-2.9-0.4-4.28
			c-0.14-1.21-0.31-2.37-0.51-3.49c-0.59-3.36-1.9-8.22-3.44-13.5l-1.1-3.68c-1.57-5.2-3.25-10.54-4.63-15.06l-1.01-3.39
			c-0.97-3.3-1.65-5.87-1.82-7.2c-0.25-1.97-1.19-6.73-2.37-12.33c-0.77-3.66-1.64-7.68-2.47-11.49l-1.22-5.54
			c-0.13-0.58-0.25-1.15-0.38-1.7l-0.64-2.89c-0.49-2.22-0.89-4.01-1.14-5.11c-0.11-0.49-0.25-1.09-0.43-1.78l-0.67-2.55
			c-1.27-4.65-3.25-11.37-5.2-17.65c-0.47-1.53-0.93-3.03-1.39-4.46c-1.29-4.08-2.47-7.65-3.28-9.89c-0.3-0.84-0.6-1.87-0.88-3.06
			l-0.01-0.03c-0.42-1.77-0.82-3.87-1.2-6.12c-0.58-3.45-1.08-7.24-1.49-10.74l-0.06-0.49c-0.18-1.51-0.34-2.96-0.47-4.3l-1.37-9.43
			c-0.21-0.53-0.45-1.17-0.73-1.89l-1.13-2.93c-0.28-0.71-0.57-1.45-0.87-2.23l-0.89-2.29c-0.18-0.47-0.36-0.95-0.55-1.43
			l-1.53-3.98c-1.98-5.2-4.04-10.76-5.57-15.31c-0.58-1.71-1.07-3.28-1.45-4.63c-0.01-0.01-0.01-0.03-0.01-0.04
			c-0.11-0.36-0.2-0.7-0.29-1.02c-0.58-2.19-1.75-5.54-3.23-9.48l-1-2.63c-1.56-4.02-3.34-8.48-5.12-12.8v-0.01
			c-1.5-3.66-3-7.22-4.32-10.38c-0.21-0.49-0.42-0.98-0.61-1.45c-1.13-2.67-2.12-4.97-2.84-6.68l-2.74-3.26
			c-3.16-0.38-6.71-1.99-10.18-4.06h-0.01l-0.01-0.01c-0.72-0.43-1.43-0.88-2.14-1.34c-1.73-1.13-3.43-2.59-5.07-4.23l-2.41-2.58
			c-0.88-1-1.75-2.04-2.58-3.08l-0.05-0.06c-3.03-3.79-5.7-7.68-7.8-10.39h-0.01l-0.01-0.03c-0.45-0.58-0.87-1.1-1.26-1.56
			c-1.95-2.28-6.07-7.34-9.86-12.03c-0.09-0.11-0.17-0.21-0.25-0.32c-2.58-3.2-4.98-6.19-6.39-7.95l-2.77-0.61
			c-7.42,4.26-19.18-2.45-26.5-7.93c-1.48-1.11-2.78-2.17-3.82-3.08l-0.03-0.03c-0.73-0.63-1.33-1.19-1.78-1.64
			c-1.23-1.23-3.26-3.59-5.61-6.53l-2.08-2.61c-2.04-2.6-4.22-5.48-6.3-8.33l-0.03-0.04c-2.78-3.8-5.37-7.56-7.23-10.58
			c-1.79-2.91-4.01-5.81-6.2-8.4l-0.03-0.03c-2.58-3.07-5.11-5.7-6.8-7.39l-3.47,1.97c-2.47,6.91-7.76,21.69-12.43,34.78
			c-0.87,2.45-1.72,4.83-2.52,7.09c0,0.01-0.01,0.01-0.01,0.02v0.01c-0.01,0.03-0.03,0.07-0.04,0.1c-0.32,0.92-0.64,1.82-0.95,2.69
			l-1.35,3.82c-1.01,2.85-1.88,5.3-2.53,7.16c-0.33,0.93-0.72,2-1.17,3.19c-0.67,1.78-1.48,3.82-2.39,6.08
			c-1.39,3.46-3.02,7.42-4.81,11.67c-0.86,2.06-1.76,4.19-2.69,6.36c-2.88,6.78-5.99,13.98-9.01,20.9l-1.8,4.13
			c-0.66,1.54-1.33,3.04-1.98,4.52l-2.01,4.58c-0.09,0.21-0.18,0.41-0.27,0.61c-1.17,2.67-2.29,5.18-3.3,7.48
			c-0.89,2.02-1.72,3.87-2.45,5.53c-0.93,2.09-2.25,4.63-3.87,7.5c-1.49,2.65-3.23,5.59-5.17,8.71c-4.45,7.2-9.88,15.43-15.41,23.56
			c-1.65,2.43-3.32,4.85-4.96,7.22c-3.24,4.67-6.43,9.2-9.38,13.34c-1.92,2.69-3.74,5.22-5.41,7.52c-0.91,1.25-1.78,2.44-2.6,3.55
			c-2.82,3.85-5.03,6.78-6.29,8.35c-0.12,0.16-0.24,0.3-0.35,0.43c-1.6,1.95-6.35,7.2-12.52,13.91c-1.9,2.06-3.93,4.26-6.05,6.54
			c-3.95,4.28-8.21,8.86-12.43,13.38c-1.72,1.85-3.44,3.69-5.13,5.5c-1.92,2.06-3.8,4.06-5.6,6c-1.97,2.11-3.87,4.13-5.63,6.01
			c-1.07,1.14-2.09,2.23-3.06,3.26"/>
		<path id="rep" class="st6" d="M492.78,723.85c-2.43,2.49-4.62,4.51-6.15,6.08c-2.23,2.27-3.44,3.52-3.44,3.52"/>
		<path id="båt" class="st5" d="M853.63,845.5c-1.37,0-11.65,0-11.65,0v-6.17l-3.18-0.15l-3.87-0.18l-32.02-71.72v-0.59l26.13-2.43
			l3.34-0.31c0,0,2.06,0,2.06-2.06c0-2.06-2.74-1.37-2.74-1.37l-3.67,0.35l-25.12,2.39v-38.38l16.86-2.28l8.5-1.15
			c0,0,2.06,0,2.06-1.37c0-1.37-2.6-1.3-2.6-1.3l-8.6,0.93l-16.22,1.74v-6.85l14.65-1.78l7.97-0.97c0,0,2.06,0,2.06-0.69
			c0-0.69,0-1.37-2.06-1.37c-0.81,0-4.48,0.21-8.64,0.47c-6.41,0.39-13.97,0.9-13.97,0.9V644c0,0,0-0.69-0.69-0.69
			c-0.69,0-0.69,0.69-0.69,0.69v0.1l-1.37,67.06l-28.79,3.43V695.4l13.02-1.37c0,0,2.06,0,2.06-1.37c0-1.37-0.69-1.37-2.06-1.37
			c-1.37,0-13.02,1.37-13.02,1.37v-8.91l9.6-0.69c0,0,2.06,0,2.06-1.37c0-1.37-0.69-2.06-2.74-2.06c-2.06,0-8.91,0.69-8.91,0.69
			V648.8l29.43-6.59l16.49-3.69c0,0,1.37,0,1.37-1.37c0-1.37-1.37-2.06-3.43-1.37c-0.8,0.27-7.57,1.77-15.56,3.51
			c-12.62,2.75-28.3,6.09-28.3,6.09l-0.14-2.04l27.57-6.28l11.64-2.65c0,0,1.37,0,1.37-0.69c0-0.69-0.69-1.37-2.06-1.37
			c-0.49,0-5.55,1.06-11.84,2.41c-11.29,2.42-26.54,5.81-26.54,5.81v-38.38l13.9-3.31l14.89-3.54c0,0,2.06,0,2.06-1.37
			c0-1.37-2.74-0.69-2.74-0.69l-15.2,2.97l-12.9,2.52V559.7c0,0,0-2.06-0.69-2.06s-2.06,0-2.06,2.06v1.97c0,8.07,0,37.09,0,37.09
			l-49.35,10.97v-2.74l45.23-10.28c0,0,1.37,0,1.37-1.37c0-1.37-1.37-0.69-2.74-0.69c-1.37,0-43.86,8.91-43.86,8.91l0.69-43.86
			l31.25-7.66l2.33-0.57c0,0,1.37-0.69,1.37-2.06c0-1.37-2.06-0.69-2.74-0.69c-0.13,0-1.4,0.28-3.37,0.73
			c-8.27,1.89-28.85,6.81-28.85,6.81l0.63-42.23l0.05-3.69c0,0,0.69-2.74-1.37-2.74s-1.37,1.37-1.37,2.74c0,0.2-0.03,1.32-0.08,3.08
			c-0.29,10.43-1.29,43.52-1.29,43.52l-34.95,9.6c0,0-2.74,0.69-2.74,1.37s1.37,2.06,3.43,1.37c2.06-0.69,34.27-8.91,34.27-8.91
			l-0.69,43.86l-45.92,10.97c0,0-2.74,0-2.74,2.06c0,2.06,4.11,0.69,4.11,0.69l43.86-10.28v2.74l-54.14,13.02
			c0,0-2.06,0.69-2.06,2.06c0,1.37,4.11,0.69,4.11,0.69l52.09-12.34V644l-64.43,8.91l0.69-88.41l58.26-15.08
			c0,0,4.11-0.69,3.43-3.43s-5.48-0.69-5.48-0.69l-56.89,14.39v-3.43l53.46-13.02c0,0,1.37-0.69,1.37-2.06
			c0-1.37-2.06-1.37-3.43-1.37c-1.37,0-51.4,12.34-51.4,12.34l0.69-50.03l28.66-7.9l11.1-3.06c0,0,2.06-0.69,1.37-2.06
			c-0.69-1.37-4.11,0-4.11,0l-10.43,2.51l-26.58,6.4v-56.2c0,0,0.69-2.74-1.03-3.08c-1.34-0.27-2.06,0.69-2.06,2.74
			c0,0.73-0.17,8.09-0.39,17.33c-0.4,16.97-0.98,40.25-0.98,40.25l-14.97,4.44l-28.9,8.58c0,0-0.69,0.69-0.69,1.37
			c0,0.69,1.37,0.69,1.37,0.69l26.86-6.82l16.32-4.15l-1.03,49l-37.87,10.49l-19.01,5.27c0,0-2.06,0-2.06,2.06
			c0,2.06,2.74,0.69,2.74,0.69l16.52-3.88l38.99-9.14v3.43l-40.97,10.24l-24.82,6.21c0,0-2.06,0.69-2.06,2.06
			c0,1.37,2.06,1.37,2.74,1.37c0.27,0,10.14-2.28,22.13-5.06c18.88-4.38,42.98-10.02,42.98-10.02l-0.69,87.73l-75.39,12.34
			c0,0-2.74,0.69-2.74,2.74c0,2.06,3.43,1.37,3.43,1.37l74.71-10.28v6.85l-80.19,12.34c0,0-2.74,0-2.74,2.06s3.43,1.37,3.43,1.37
			l79.5-10.28l-1.37,37.7h-5.26l-2.96,4.8h5.87l-3.22,8.69l-89.01,11.87c0,0-2.74,0.69-2.74,2.74c0,2.06,3.43,1.37,3.43,1.37
			l85.72-8.96l-24.74,66.75l-10.27-1.59c0,0-4.8-0.69-6.17,0c-1.37,0.69-3.43,2.06-3.43,2.06s-0.88,1.31-1.93,1.84l-95.58-59.88
			l-5.98-5.01c0,0-1.19-1.19-2.58-1.6c-0.73-0.23-1.51-0.23-2.21,0.23c-2.06,1.37,0.69,4.11,1.37,4.8c0.69,0.69,67.17,61,67.17,61
			l-8.22-4.11c0,0-1.37-0.69-2.06,0c-0.69,0.69,2.06,3.43,2.06,3.43s16.45,17.13,21.25,23.99c4.8,6.85,8.91,15.08,9.6,20.56
			c0.69,5.48,0.69,21.25,0.69,26.04c0,4.8,3.43,19.88,4.8,23.99c1.37,4.11,1.37,13.71,1.37,13.71s90.47-1.37,108.97-2.06
			c18.51-0.69,143.24-5.48,143.24-5.48s4.8-0.69,4.8-3.43c0-2.74-2.06-23.99-0.69-26.04c1.37-2.06,5.48-8.22,6.17-10.97
			s6.17-6.85,8.22-7.54c2.06-0.69,4.11-1.37,4.11-2.74S855,845.5,853.63,845.5z M563.03,798.21l-40.73-34.12l48.92,34.6
			C566.7,798.43,563.03,798.21,563.03,798.21z M572.69,798.77l-53.72-37.48l-18-15.08l79.5,53
			C578.03,799.07,575.27,798.92,572.69,798.77z M581.94,799.29l-82.49-54.35l-4.2-3.52l92.24,58.15
			C586.76,799.55,584.65,799.44,581.94,799.29z M599.7,804.04l-7.54-4.11c0,0,0-0.69,2.06-2.06c2.06-1.37,5.48-1.37,5.48-1.37
			V804.04z M640.82,714.94l-2.06,8.22h-0.69L640.82,714.94z M640.82,716.99l-0.69,6.17h-0.69L640.82,716.99z M638.08,730.7
			l-15.14,68.43l-1.17-0.18L638.08,730.7z M621.11,798.85l-1.74-0.26l18.03-67.89L621.11,798.85z M618.71,798.49l-3.04-0.46
			l21.04-67.33L618.71,798.49z M615.01,797.94l-1.91-0.29l22.92-66.95L615.01,797.94z M635.34,730.7l-22.88,66.85l-1.35-0.2
			L635.34,730.7z M601.07,804.04v-6.85l8.22,1.37v1.24l-2.3,6.22L601.07,804.04z M607.92,806.09l2.65-7.29l1.36,0.25l-2.65,7.72
			L607.92,806.09z M609.98,806.78l2.6-7.6l1.93,0.37l-2.47,7.92L609.98,806.78z M612.72,807.46l2.43-7.79l3.09,0.59l-2.1,7.89
			L612.72,807.46z M616.83,808.15l2.06-7.77l1.77,0.34l-1.78,7.43H616.83z M619.57,808.15l1.75-7.31l1.19,0.23l-1.56,7.08H619.57z
			 M624.37,808.83l-2.34-0.35l1.54-7.21l0.02-0.1l0.1,0.01l0.69,0.1V808.83z M635.34,810.2l-9.6-1.37v-7.54l9.6,1.37V810.2z
			 M640.13,810.89l-3.43-0.69v-7.54l3.43,0.69V810.89z M640.63,757.36c-2.96,0.59-6.67,1.58-6.67,2.81c0,1.63,3.65,1.56,6.59,1.24
			l-0.77,40.22l-15.78-2.45l14.71-69.26l2.45-0.25L640.63,757.36z M641.16,722.82l-0.97,0.13l0.97-4.54V722.82z M649.39,716
			l1.97,5.97l-1.97,0.16V716z M688.11,795.81l-0.69,1.37l-18.51-38.38h1.37L688.11,795.81z M671.39,758.12l34.69-3.65l-17.6,40.49
			L671.39,758.12z M665.49,758.8h0.69l18.51,44.55l-1.37,2.74L665.49,758.8z M682.63,807.46l-1.37,2.74l-17.13-51.4h0.69
			L682.63,807.46z M666.86,758.8h1.37l18.51,39.75l-1.37,2.74L666.86,758.8z M667.55,754l-11.65-26.04h0.69L668.92,754H667.55z
			 M666.86,754.69h-2.06l-10.28-26.73L666.86,754.69z M664.12,754.69h-1.37l-8.91-26.73L664.12,754.69z M653.16,721.79l-2.74-6.85
			l3.43,6.85H653.16z M652.47,721.79h-0.69l-2.06-6.85L652.47,721.79z M649.39,728.3l3.93-0.38l8.91,27.05l-13.52,1.43L649.39,728.3
			z M648.7,760.51l14.83-1.56l17.15,52.05l-32.67-8L648.7,760.51z M652.47,813.63l-4.8-1.37v-6.85l4.8,0.69V813.63z M660.01,815
			l-6.17-1.37v-6.85l6.17,1.37V815z M674.4,819.11l-13.02-3.43v-7.54l13.02,3.43V819.11z M675.77,819.8v-7.54l4.83,0.81l-3.11,7.16
			L675.77,819.8z M678.52,820.49l28.1-65.8l-25.36,67.17L678.52,820.49z M709.36,749.89h-0.69l4.8-10.97L709.36,749.89z
			 M713.47,740.3l-2.74,9.6h-0.69L713.47,740.3z M709.36,754.69l-6.17,21.25h-1.37l6.85-21.25H709.36z M701.13,775.94h-1.37
			l8.22-21.25L701.13,775.94z M682.63,821.86l16.45-43.86h1.37l-15.76,44.55L682.63,821.86z M688.8,823.23l-3.43-0.69l15.76-44.55
			h0.69L688.8,823.23z M689.48,823.23l13.02-45.23h0.69l-12.34,45.23H689.48z M691.54,823.23l0.69-3.43l0.69,4.11L691.54,823.23z
			 M693.59,823.91l-0.69-5.48l0.69-2.06l2.06,8.22L693.59,823.91z M697.02,825.97L694.28,815v-1.37l4.8,13.71L697.02,825.97z
			 M700.45,828.02l-5.48-15.08v-1.37l8.22,18.51L700.45,828.02z M711.07,833.16c-0.97,0-3.16-0.76-5.71-1.79l-10.1-21.76l8.63-31.85
			l9.23-0.8L711.07,833.16z M713.13,774.22c0,0-4.61,0.73-8.63,1.32l5.83-21.51l3.49-0.37L713.13,774.22z M713.81,749.55l-2.34,0.25
			l2.34-8.66V749.55z M713.81,736.7l-5.85,13.47l-38.38,4.04l-12.36-26.65l56.59-5.42V736.7z M714.5,688.55
			c0,0-50.03,8.91-52.09,9.6c-2.06,0.69-4.11,1.37-4.11,2.74c0,1.37,2.74,1.37,2.74,1.37l53.46-9.6v6.85l-51.4,9.6
			c0,0-3.43,0.69-3.43,2.06c0,1.37,1.54,1.6,1.54,1.6l53.29-8.46v12.34l-59.99,5.05l-3.3-7.11h2.29l2.06-4.8h-6.17l1.37-39.07
			l64.43-9.6L714.5,688.55z M715.18,657.02l-64.43,8.22v-6.85l64.43-10.28V657.02z M719.3,738.85l3.26,8.99l-3.26,0.34V738.85z
			 M720.32,738.93l4.11,8.91h-1.37l-3.43-9.6l4.11,9.6L720.32,738.93z M748.42,798.55l-0.69,1.37l-11.65-25.36h0.69L748.42,798.55z
			 M737.49,774.41l22.23-2.29l-10.82,26.18L737.49,774.41z M747.74,801.98l-0.69,1.37l-12.34-28.79h0.69L747.74,801.98z
			 M746.37,804.72l-1.37,2.74l-11.65-32.9h0.69L746.37,804.72z M734.03,771.14l-7.54-18.51l8.91,18.51H734.03z M733.35,771.14h-0.69
			l-6.85-18.51L733.35,771.14z M731.97,771.14l-7.54-18.51h0.69L731.97,771.14z M719.3,752.98l4.92-0.58l6.98,19.22l-11.9,1.23
			V752.98z M718.61,833.16l0.69-56.89l13.1-1.35l12.24,33.71l-10.13,24.52H718.61z M735.4,832.82l24.67-60.31l-22.62,60.31H735.4z
			 M738.83,832.82l21.93-60.31l-19.19,60.31H738.83z M742.94,832.82l18.51-60.31l-15.76,60.31H742.94z M746.37,832.82l2.95-11.27
			l4.21,11.59C751.06,832.76,748.38,833.25,746.37,832.82z M749.79,821.17v-1.37l4.11,13.02L749.79,821.17z M755.28,832.82
			l-4.8-15.08l0.69-2.06l6.17,17.13H755.28z M758.02,832.82l-6.17-19.19l0.69-2.74l8.22,21.93H758.02z M762.13,832.82l-8.91-22.62
			v-1.37l10.97,23.99H762.13z M764,829.86l-10.82-22.64l9.52-35.41l3.21-0.33L764,829.86z M762.13,768.4l3.43-9.6v0.69l-2.74,8.91
			H762.13z M765.9,768.05l-2.26,0.23l2.26-8.4V768.05z M765.9,757.18l-4.69,11.36l-25.28,2.6l-9.11-19.05l39.08-4.6V757.18z
			 M765.9,743.38l-41.21,4.24l-5.39-11.28v-1.19l46.61-5.48V743.38z M765.9,726.25l-46.61,6.17v-6.85l46.61-6.17V726.25z
			 M765.9,716.65l-46.61,6.85v-2.33l11.65-1.78c0,0,3.43,0,3.43-2.06c0-2.06-2.06-2.06-2.06-2.06l-13.02,0.69v-12.34l47.29-7.54
			L765.9,716.65z M766.59,692.66l-47.29,6.85v-8.22l47.29-6.85V692.66z M767.27,640.57c0,0-38.38,8.22-40.44,8.91
			c-2.06,0.69-2.06,1.37-2.06,2.06s2.06,0.69,2.06,0.69l40.44-8.22v2.06c0,0-32.9,7.54-34.27,7.54c-1.37,0-2.06,1.37-2.06,2.06
			s1.37,0.69,1.37,0.69l34.95-6.85l-0.69,31.53l-47.29,6.85l0.69-27.42c0,0,7.54-0.69,8.22-0.69c0.69,0,2.06-0.69,2.06-2.06
			c0-1.37-2.06-2.06-2.06-2.06l-8.22,0.69v-9.6c0,0,4.8-0.69,6.17-0.69s2.06-0.69,2.06-2.06c0-1.37-2.06-1.37-2.06-1.37l-6.17,0.69
			v-30.16l47.98-10.97L767.27,640.57z M771.38,761.1l1.86,5.41l-1.86,0.18V761.1z M786.8,799.24l-0.69,1.37l-10.97-30.16
			L786.8,799.24z M775.84,770.45h0.69l11.65,26.04l-0.69,1.37L775.84,770.45z M773.78,766.34l-2.06-7.54l3.43,7.54H773.78z
			 M770.7,834.54l0.69-63.74l3.18-0.47l10.95,31.79l-13.3,32.93C771.25,834.74,770.7,834.54,770.7,834.54z M773.78,834.88
			l24.67-63.74l-23.3,64.43L773.78,834.88z M776.52,835.56l20.56-58.94l-19.19,59.63L776.52,835.56z M778.58,836.25l13.71-43.18
			l-13.02,43.86L778.58,836.25z M783.04,837.28c-1.12-0.11-2.19-0.26-3.22-0.43l8.13-27.69l9.7,28.16
			C795.8,837.44,788.91,837.87,783.04,837.28z M798.46,834.19l-9.6-25.36v-1.37l9.6,23.3V834.19z M798.46,828.02l-8.91-21.93v-1.37
			l8.91,20.56V828.02z M798.46,823.91l-8.22-19.88v-2.06l8.22,18.51V823.91z M798.48,818.74l-8-18.22l8.94-30.45L798.48,818.74z
			 M799.47,767.56l-11.24,27.84l-11.17-25.43l22.43-3.28L799.47,767.56z M799.48,763.94l-24.04,2.34l-4.06-9.25v-10.23l15.08-2.06
			c0,0,3.43,0,3.43-2.06c0-2.06-3.43-1.37-3.43-1.37l-15.08,1.37v-13.71l28.1-3.43V763.94z M799.48,722.13l-28.1,3.43v-6.85
			l28.1-4.11V722.13z M803.94,836.25l-1.37-2.74v-2.74l2.74,5.48H803.94z M813.19,837.96v-2.06h-7.18l-3.1-7.07v-59.6l24.61,69.41
			L813.19,837.96z M828.61,838.99l-21.93-60.31l23.99,60.31H828.61z M832.04,838.99l-28.79-69.91l30.84,69.91H832.04z"/>
		<g id="flags">
			<path class="st5" d="M503.06,727.96l-4.11,6.85c0,0-3.43-4.8-5.48-4.8s-7.04,0.66-7.04,0.66l5.98-6.39c0,0,4.48-0.45,6.54,1.61
				C501,727.96,503.06,727.96,503.06,727.96z"/>
			<path class="st5" d="M500.32,714.94c0,0,8.91,0.69,9.6,4.8l-1.37,3.43c0,0-1.37-2.74-4.8-2.74s-8.91,0.69-8.91,0.69
				L500.32,714.94z"/>
			<path class="st5" d="M511.28,703.29c0,0,4.8,2.06,7.54,4.11c2.74,2.06,8.91,0.69,8.91,0.69v2.06c0,0-6.85,1.37-9.6,0
				c-2.74-1.37-8.91-2.74-12.34-0.69L511.28,703.29z"/>
			<path class="st5" d="M529.79,683.41c0,0,4.8,2.06,8.22,1.37s5.48-1.37,5.48-1.37s-2.06,6.85-3.43,7.54c0,0-6.17-1.37-9.6-1.37
				s-6.85,0.69-6.85,0.69L529.79,683.41z"/>
			<path class="st5" d="M548.98,660.79c0,0,2.74,0.69,3.43,1.37c0.69,0.69,3.43,0,3.43,0l-3.43,5.48c0,0-1.37-2.06-2.74-1.37
				c-1.37,0.69-3.43,3.43-4.8,3.43c-1.37,0-2.06-0.69-2.06-0.69L548.98,660.79z"/>
			<path class="st5" d="M557.2,649.83c0,0,9.6,0.69,10.97,0l-3.43,7.54h-13.02L557.2,649.83z"/>
			<path class="st5" d="M571.6,629.27c0,0,4.8,0.69,6.17-2.06l-0.69,8.22c0,0-10.97,0-11.65,2.06L571.6,629.27z"/>
			<path class="st5" d="M587.36,604.59l4.8-7.54c0,0,4.11-0.69,7.54,1.37s5.48-0.69,5.48-0.69l-5.48,9.6c0,0-0.69-2.74-5.48-2.74
				c-4.8,0-7.54,1.37-7.54,1.37L587.36,604.59z"/>
			<path class="st5" d="M601.75,576.49c0,0,4.8,0,7.54,1.37c2.74,1.37,6.85-2.06,10.28-1.37c3.43,0.69,4.11,5.48,6.17,4.8
				c0,0-2.06,2.06-4.11,1.37s-3.43-4.11-7.54-2.06c-4.11,2.06-15.76,3.43-15.76,3.43L601.75,576.49z"/>
			<path class="st5" d="M619.57,535.37c0,0,4.8,0.69,6.85,0c2.06-0.69,6.17-1.37,6.17-1.37s-2.74,5.48-2.06,6.17
				c0,0-3.43-0.69-5.48,0.69c-2.06,1.37-8.22,1.37-8.22,0.69L619.57,535.37z"/>
			<path class="st5" d="M626.43,517.55c0,0,6.85,1.37,8.22,0c1.37-1.37,3.43-4.11,6.17-4.11s4.8,2.74,4.8,2.74s-3.43-2.06-4.8-0.69
				c-1.37,1.37-4.11,6.17-7.54,6.85c-3.43,0.69-7.78,1.39-8.69,1.38C623.69,523.72,626.43,517.55,626.43,517.55z"/>
			<path class="st5" d="M635.34,493.56c0,0,5.48,0.69,7.54-0.69c2.06-1.37,2.74,0,2.74,0l-2.06,6.17c0,0-2.74-1.37-4.8-0.69
				c-2.06,0.69-5.34,1.25-5.75,2.34C632.6,501.79,635.34,493.56,635.34,493.56z"/>
			<path class="st5" d="M653.84,458.61c0,0,3.43-2.74,8.22-2.06c4.8,0.69,7.54,1.37,8.91,0c1.37-1.37,2.74-2.74,5.48-2.06
				c0,0-4.11,1.37-4.8,3.43c-0.69,2.06-0.69,4.11-4.11,4.8c-3.43,0.69-9.65,0.33-9.28,1.54L653.84,458.61z"/>
			<path class="st5" d="M669.61,479.85c0,0,2.06-1.37,4.8-0.69c2.74,0.69,4.11-0.69,4.11-0.69v4.8c0,0-7.42-0.69-6.79,0
				L669.61,479.85z"/>
			<path class="st5" d="M687.48,502.39c0,0,6.8-1.98,8.17-0.61c1.37,1.37,2.74-0.69,2.74-0.69v5.48c0,0-7.24-2.15-7.05-1.08
				L687.48,502.39z"/>
			<path class="st5" d="M725.81,519.6c0,0,5.48-0.69,6.17-2.06l1.37,2.74c0,0-0.69,2.74-2.74,2.06c-2.06-0.69-3.43,0-3.43,0
				L725.81,519.6z"/>
			<path class="st5" d="M737.46,533.31c0,0,4.11,0.69,4.8-0.69v4.11l-3.86-0.82l-1.62-2.61H737.46z"/>
			<path class="st5" d="M744.31,543.59c0,0,1.37-2.06,4.11-1.37c2.74,0.69,5.48,2.74,6.17,1.37c0,0,0,1.37-1.37,1.37
				s-2.74-1.37-4.11-0.69c-1.37,0.69-2.86,2.1-2.86,2.1L744.31,543.59z"/>
			<path class="st5" d="M755.96,555.24c0,0,2.06,0.69,2.74,0c0.69-0.69,1.37-2.06,2.06-2.06l0.69,3.43l-2.99,1L755.96,555.24z"/>
			<path class="st5" d="M773.78,568.95c0,0,4.11,1.37,5.48,0c1.37-1.37,4.11-1.37,4.8,0l-3.43,6.17c0,0-2.74-2.06-4.11-2.06
				c-1.37,0-2.06,0-2.06,0L773.78,568.95z"/>
			<path class="st5" d="M779.16,583.44c0,0,6.96-0.09,7.65,1.28c0.69,1.37,2.06,3.43,2.74,2.74l-2.06,3.43c0,0-4.11-4.11-6.17-3.43
				L779.16,583.44z"/>
			<path class="st5" d="M788.18,605.96c0,0,0-0.69,2.06-1.37c2.06-0.69,4.11,1.37,4.8,0l1.37,2.06c0,0-4.11-0.69-5.48,0.69
				c-1.37,1.37-2.1,2.09-2.1,2.09L788.18,605.96z"/>
			<path class="st5" d="M790.28,614.05c0,0,2.7-2.61,5.44-1.24c2.74,1.37,9.6,2.74,9.6-0.69c0,0,0.69,1.37-0.69,2.74
				c-1.37,1.37-4.11,3.43-6.17,2.74s-3.43-2.06-4.8-1.37c-1.37,0.69-2.06,1.37-2.06,1.37L790.28,614.05z"/>
			<path class="st5" d="M795.85,629.36c0,0,6.04,0.59,7.41-2.15c1.37-2.74,2.74,0,2.74,0l-1.37,4.11c0,0-2.74,0-2.74,1.37
				c0,1.37-4.51,0.65-4.51,0.65L795.85,629.36z"/>
			<path class="st5" d="M803.39,657.83c0,0,0.55-2.52,3.3-1.15c2.74,1.37,5.48,5.48,6.85,4.11c0,0-2.74,2.06-4.11,0.69
				c-1.37-1.37-5.48-0.69-5.48,0.69L803.39,657.83z"/>
			<path class="st5" d="M804.93,669.07c0,0,4.49-0.05,7.23,1.32c2.74,1.37,6.85,0.69,7.54-0.69c0,0,0,3.43-2.74,4.11
				c-2.74,0.69-6.17-0.69-8.22,0c-2.06,0.69-2.6,1.4-2.6,1.4L804.93,669.07z"/>
			<path class="st5" d="M810.11,686.84c0,0,2.06,0.69,4.8,0.69s3.43-0.69,3.43-0.69l0.69,5.48c0,0-6.42,0.6-7.32,0.3
				C810.79,692.32,810.11,686.84,810.11,686.84z"/>
			<path class="st5" d="M820.15,724.3c0,0,6.41,2.29,9.84,2.29s6.85-1.37,6.85-1.37s-2.06,2.74-5.48,3.43
				c-3.43,0.69-9.99,1.19-9.99,1.19L820.15,724.3z"/>
			<path class="st5" d="M823.84,741.33c0,0,1.34-1.72,3.4-1.04s4.8,1.37,5.48,0.69l0.69,5.48c0,0-5.48-1.37-6.17,0
				c-0.69,1.37-1.37,2.06-1.37,2.06L823.84,741.33z"/>
			<path class="st5" d="M833.67,779.31c0,0,3.85,2.79,5.91,1.42c2.06-1.37,8.91-1.37,9.6,0c0,0-6.85-0.69-6.85,0.69
				c0,1.37-2.74,2.74-4.8,2.74s-2.76-1.16-2.76-1.16L833.67,779.31z"/>
			<path class="st5" d="M838.71,799.98c0,0,3.61,2,4.98,1.31s4.11-1.37,4.8-1.37v4.8c0,0-2.06,0.69-4.11,0.69
				c-2.06,0-5.03-1.39-5.26-1.04L838.71,799.98z"/>
			<path class="st5" d="M839.41,819.8c0,0,4.28,2.74,5.65,2.06l-1.37,4.8c0,0-4.8-1.37-4.8-2.06L839.41,819.8z"/>
		</g>
	</g>
	<rect x="0" y="896" class="st4" width="1920" height="184"/>
</g>
</svg>
